<mxfile host="Electron" modified="2024-02-01T15:28:49.464Z" agent="Mozilla/5.0 (Windows NT 10.0; Win64; x64) AppleWebKit/537.36 (KHTML, like Gecko) draw.io/22.1.16 Chrome/120.0.6099.109 Electron/28.1.0 Safari/537.36" etag="wSCo0D2WuZvC-Q6KhATC" version="22.1.16" type="device">
  <diagram name="Page-1" id="Q9AJLjau8AQ9Hx0PPsnv">
    <mxGraphModel dx="989" dy="582" grid="1" gridSize="10" guides="1" tooltips="1" connect="1" arrows="1" fold="1" page="1" pageScale="1" pageWidth="827" pageHeight="1169" math="0" shadow="0">
      <root>
        <mxCell id="0" />
        <mxCell id="1" parent="0" />
        <mxCell id="EkYDoiOOCvkmQ06271Wi-4" value="" style="sketch=0;pointerEvents=1;shadow=0;dashed=0;html=1;labelPosition=center;verticalLabelPosition=bottom;verticalAlign=top;outlineConnect=0;align=center;shape=mxgraph.office.concepts.clock;" vertex="1" parent="1">
          <mxGeometry x="60" y="20" width="500" height="500" as="geometry" />
        </mxCell>
        <mxCell id="EkYDoiOOCvkmQ06271Wi-2" value="" style="sketch=0;pointerEvents=1;shadow=0;dashed=0;html=1;labelPosition=center;verticalLabelPosition=bottom;verticalAlign=top;outlineConnect=0;align=center;shape=mxgraph.office.concepts.clock;rotation=-30;" vertex="1" parent="1">
          <mxGeometry x="210" y="170" width="200" height="200" as="geometry" />
        </mxCell>
        <mxCell id="EkYDoiOOCvkmQ06271Wi-5" value="" style="shape=flexArrow;endArrow=classic;html=1;rounded=0;" edge="1" parent="1">
          <mxGeometry width="50" height="50" relative="1" as="geometry">
            <mxPoint x="400" y="190" as="sourcePoint" />
            <mxPoint x="450" y="140" as="targetPoint" />
          </mxGeometry>
        </mxCell>
        <mxCell id="EkYDoiOOCvkmQ06271Wi-6" value="" style="shape=flexArrow;endArrow=classic;html=1;rounded=0;" edge="1" parent="1">
          <mxGeometry width="50" height="50" relative="1" as="geometry">
            <mxPoint x="229.99999999999955" y="349.9999999999998" as="sourcePoint" />
            <mxPoint x="179.99999999999955" y="399.9999999999998" as="targetPoint" />
          </mxGeometry>
        </mxCell>
        <mxCell id="EkYDoiOOCvkmQ06271Wi-7" value="Time-Expanded" style="text;html=1;align=center;verticalAlign=middle;whiteSpace=wrap;rounded=0;fillColor=none;strokeColor=none;fontStyle=3;fontSize=56;" vertex="1" parent="1">
          <mxGeometry x="60" y="250" width="500" height="30" as="geometry" />
        </mxCell>
      </root>
    </mxGraphModel>
  </diagram>
</mxfile>
